<svg width="100px" height="100px" viewBox="0 0 3 3" fill="none" xmlns="http://www.w3.org/2000/svg"><path fill-rule="evenodd" clip-rule="evenodd" d="M1.129 0.418a1.626 1.626 0 0 1 0.743 0 0.954 0.954 0 0 1 0.711 0.711 1.626 1.626 0 0 1 0 0.743 0.954 0.954 0 0 1 -0.711 0.711 1.626 1.626 0 0 1 -0.743 0 0.954 0.954 0 0 1 -0.711 -0.711 1.626 1.626 0 0 1 0 -0.743A0.954 0.954 0 0 1 1.129 0.418Zm0.753 0.892a0.072 0.072 0 1 0 -0.105 -0.098l-0.368 0.395 -0.187 -0.187a0.072 0.072 0 0 0 -0.102 0.102l0.239 0.239a0.072 0.072 0 0 0 0.103 -0.002l0.419 -0.449Z" fill="#000"/></svg>